<svg width="93" height="93" xmlns="http://www.w3.org/2000/svg" xmlns:svg="http://www.w3.org/2000/svg">
 <!-- Created with SVG-edit - http://svg-edit.googlecode.com/ -->
 <defs>
  <radialGradient spreadMethod="pad" id="svg_8">
   <stop offset="0" stop-color="#db4666"/>
   <stop offset="0.983073" stop-opacity="0.996094" stop-color="#f8e98a"/>
  </radialGradient>
 </defs>
 <g>
  <title>Layer 1</title>
  <path stroke="#f8e98a" id="svg_4" d="m89.50325,46.000092l-17.353058,6.099331l0,-12.198498l17.353058,6.099167zm-12.598076,-30.053567l-7.904518,16.442132l-8.727188,-8.625769l16.631706,-7.816363zm-30.403938,-12.447259l6.171085,17.1508l-12.342327,0l6.171242,-17.1508zm-30.407955,12.447259l16.635849,7.816363l-8.727287,8.625769l-7.908562,-16.442132zm-12.594025,30.053567l17.353019,-6.099167l0,12.198498l-17.353019,-6.099331zm12.594025,30.049713l7.908562,-16.437981l8.727287,8.62561l-16.635849,7.81237zm30.407955,12.450951l-6.171242,-17.150627l12.342327,0l-6.171085,17.150627zm30.403938,-12.450951l-16.631706,-7.81237l8.727188,-8.62561l7.904518,16.437981zm-51.905024,-30.049713l0,0c0,-11.73632 9.626539,-21.250513 21.501085,-21.250513c11.87471,0 21.50106,9.514193 21.50106,21.250513c0,11.736176 -9.62635,21.250359 -21.50106,21.250359c-11.874546,0 -21.501085,-9.514183 -21.501085,-21.250359z" stroke-linecap="round" stroke-linejoin="round" stroke-width="3" fill="url(#svg_8)"/>
 </g>
</svg>